<svg width="42" height="40" viewBox="0 0 42 40" fill="none" xmlns="http://www.w3.org/2000/svg">
<path d="M27.5054 20.7744C27.5112 21.1205 27.3581 21.4576 27.0728 21.7271L17.5034 30.7153C17.1785 31.0212 16.7083 31.2163 16.1962 31.2577C15.684 31.2991 15.1719 31.1834 14.7725 30.936C14.3731 30.6886 14.1191 30.3299 14.0663 29.9387C14.0136 29.5474 14.1665 29.1558 14.4913 28.8499L23.0659 20.8202L14.58 12.9663C14.4169 12.8165 14.2942 12.6433 14.219 12.4569C14.1438 12.2705 14.1177 12.0745 14.142 11.8801C14.1663 11.6857 14.2406 11.4968 14.3607 11.3243C14.4808 11.1517 14.6443 10.9989 14.8417 10.8746C15.0391 10.7369 15.2716 10.6317 15.5244 10.5657C15.7772 10.4997 16.045 10.4743 16.311 10.491C16.577 10.5077 16.8355 10.5663 17.0702 10.6629C17.3049 10.7596 17.5108 10.8923 17.6751 11.0528L27.1629 19.8445C27.41 20.1162 27.5306 20.4436 27.5054 20.7744Z" fill="#0A490A"/>
</svg>
