<svg width="14" height="13" viewBox="0 0 14 13" fill="none" xmlns="http://www.w3.org/2000/svg">
<path d="M6.91224 12.5439C6.68156 12.5447 6.45801 12.3989 6.28038 12.1318L0.35666 3.17349C0.155039 2.86938 0.0282475 2.43237 0.00417771 1.95861C-0.0198921 1.48484 0.0607316 1.01313 0.228312 0.647243C0.395893 0.281355 0.636703 0.0512618 0.897768 0.00758147C1.15883 -0.0360989 1.41877 0.110211 1.62039 0.414326L6.91224 8.44099L12.2041 0.700994C12.3051 0.552168 12.4213 0.441027 12.546 0.373962C12.6708 0.306897 12.8016 0.285229 12.9309 0.310203C13.0603 0.335178 13.1857 0.406301 13.2998 0.519488C13.414 0.632674 13.5147 0.785691 13.5962 0.969743C13.6866 1.15396 13.7551 1.37009 13.7973 1.60457C13.8396 1.83905 13.8547 2.08684 13.8417 2.33241C13.8287 2.57798 13.7879 2.81605 13.7219 3.03169C13.6559 3.24732 13.566 3.43589 13.458 3.58558L7.53424 12.2393C7.3515 12.4642 7.13251 12.5714 6.91224 12.5439Z" fill="white"/>
</svg>
